<?xml version="1.0" encoding="UTF-8"?>
<svg id="Layer_1" data-name="Layer 1" xmlns="http://www.w3.org/2000/svg" viewBox="0 0 1182.57 611.19">
  <defs>
    <style>
      .cls-1 {
        stroke: lime;
      }

      .cls-1, .cls-2, .cls-3 {
        fill: none;
      }

      .cls-1, .cls-2, .cls-3, .cls-4, .cls-5 {
        stroke-miterlimit: 10;
      }

      .cls-6 {
        font-size: 27px;
      }

      .cls-6, .cls-7, .cls-8, .cls-9 {
        fill: #fff;
      }

      .cls-6, .cls-10, .cls-8 {
        font-family: Bauhaus93, 'Bauhaus 93';
      }

      .cls-11 {
        fill: #00a99d;
        opacity: .46;
      }

      .cls-11, .cls-12, .cls-13, .cls-14, .cls-15, .cls-16, .cls-17, .cls-7, .cls-18, .cls-19, .cls-20, .cls-21, .cls-22, .cls-23, .cls-24, .cls-25 {
        stroke-width: 0px;
      }

      .cls-26 {
        font-size: 23px;
      }

      .cls-26, .cls-9 {
        font-family: TimesNewRomanPSMT, 'Times New Roman';
      }

      .cls-12 {
        fill: #222;
      }

      .cls-2 {
        stroke: #000;
      }

      .cls-3, .cls-4 {
        stroke: #fff;
      }

      .cls-13 {
        fill: #252525;
      }

      .cls-27 {
        font-family: MyriadPro-Regular, 'Myriad Pro';
        font-size: 12px;
      }

      .cls-15 {
        fill: #f5f5f5;
      }

      .cls-16 {
        fill: #f0f0f0;
      }

      .cls-17 {
        fill: #232323;
      }

      .cls-28 {
        letter-spacing: -.04em;
      }

      .cls-18 {
        fill: #ededed;
      }

      .cls-19 {
        fill: #f8f8f8;
      }

      .cls-20 {
        fill: #dedede;
      }

      .cls-10, .cls-8 {
        font-size: 30px;
      }

      .cls-21 {
        fill: #272727;
      }

      .cls-4 {
        fill: #c1272d;
        stroke-width: 2px;
      }

      .cls-22 {
        fill: #f4f4f4;
      }

      .cls-5 {
        stroke: #ed1c24;
        stroke-width: 5px;
      }

      .cls-29 {
        letter-spacing: -.04em;
      }

      .cls-23 {
        fill: lime;
      }

      .cls-9 {
        font-size: 19px;
      }

      .cls-24 {
        fill: #efefef;
      }

      .cls-25 {
        fill: #adadad;
      }
    </style>
  </defs>
  <g>
    <g>
      <path class="cls-5" d="M500.56,99.44c16.43.18,31.39-.78,46.14,2.33,4.72.99,9.38,2.33,11.08,7.63.89,2.78,3.21,2.81,5.24,2.96,36.3,2.63,72.43,7.5,108.84,8.67,30.32.98,60.37-2.83,90.49-5.34,11.49-.96,22.96-2.25,34.47-3.03,3.72-.25,6.76-.65,8.83-4.23,3.77-6.53,10.63-7.24,17.03-7.83,24.65-2.27,49.3-1.19,73.92.79,8.71.7,17.39,1.61,25.87,3.87,5.69,1.51,9.7,4.48,9.69,10.92,0,2.56,1.25,3.57,3.42,4.79,18.05,10.16,32.41,24.18,43.82,41.51,9.58,14.54,17.34,29.91,24.19,45.89,6.77,15.79,12.5,31.9,18.1,48.13,6.19,17.95,11.58,36.08,16.87,54.3,6.01,20.71,9.64,41.66,12.27,63.02,1.56,12.66,2.28,25.2,1.67,37.78-.67,13.6-2.23,27.32-6.02,40.37-4.11,14.13-9.89,27.72-20.73,38.6-19.11,19.18-48.17,22.09-70.81,10.41-14.69-7.58-25.89-19.15-36.32-31.74-12.15-14.67-22.9-30.42-35.06-45.05-9.61-11.55-19.91-22.51-33.74-29.49-4.07-2.05-6.93-1.87-10.02.99-26.28,24.35-75.03,25.43-103.36,4.88-7.73-5.61-14.15-12.12-19.34-19.92-1.47-2.21-2.97-2.71-5.31-2.7-20.1.05-40.21,0-60.31.05-2.51,0-4.7-.05-6.37,3-7.28,13.29-18.91,22.01-32.64,27.42-25.64,10.09-51.16,9.19-75.97-3.23-5.25-2.63-10.27-5.79-14.34-10.12-2.03-2.16-3.7-2.66-6.69-1.3-11.86,5.43-21.09,14.02-29.74,23.47-15.26,16.68-27.36,35.84-41.82,53.11-12.38,14.79-26.02,28.49-45.11,34.38-23.95,7.39-45.51,2.53-62.99-15.68-6.53-6.8-10.99-15.33-14.6-24.39-12.65-31.76-12.08-64.69-8.6-97.61,1.17-11.02,2.58-22.35,5.5-33.2,5.69-21.17,11.46-42.34,18.02-63.26,3.5-11.15,7.05-22.37,11.37-33.22,6.02-15.11,11.44-30.45,19.24-44.89,4.73-8.74,9.02-17.76,14.41-26.11,11.28-17.5,24.37-33.33,43.19-43.37,3.85-2.05,6.71-4.48,7.32-9.27.8-6.21,5.85-7.98,11.08-9.07,19.58-4.1,39.51-4.26,57.85-5.22ZM685.96,271.56c1.25,1.18,2.45-.16,3.68-.06,2.26-.8,3.57-2.54,4.75-4.65-1.5-.11-2.81-.2-4.13-.29,2.87-4.65,4.65-9.42-.06-13.89-4.12-3.91-12.97-3.7-17.03.1-5.34,5-5.36,6.33-.16,13.59-.05,1.33-.1,2.66-.15,4,4.14,3.15,8.44,4.45,13.15,1.19l-.05.03ZM689.49,307.27c1.33-.2,2.77-.5,3.15-1.92.44-1.64-1.26-1.43-2.14-1.88,3.58-6.12,3.24-11.45-.89-14.3-5.56-3.83-13.54-2.67-18.06,2.63-3.8,4.46-3.44,6.22,2.64,12.51.27.28.63.48.94.71-.01.64-.02,1.28-.04,1.91-.69.35-3.17-.08-1.35,1.53,3.84,3.39,11.65,2.56,15.75-1.19ZM844.83,231.6c0-1.05,0-2.09-.01-3.14,13.55-8.1,12.16-19.15,1.85-25.77-7.36-4.73-15.85-4.27-23.75-.2-5.85,3.02-9.25,10.04-7.39,15.75,1.47,4.51,4.85,7.75,9.01,10.08-.05.98-.11,1.97-.16,2.95-2.08.88-3.5-2.49-5.85-1.11,7.1,9,26.15,9.44,30.9.59-1.68.3-3.14.56-4.6.83ZM855.78,362.13c-.77,3.44-.42,6.86.63,10.39-1.19-4.07,3.55-6.38,2.63-10.36,1.31-4.37,1.93-9.1,4.04-13.04,9.82-18.41,25.47-30.5,43.46-40.5,21.14-11.75,42.74-23.02,57.65-43.39,8.01-10.94,10.26-22.33,8.7-36.68-2.16,6.96-2.38,12.9-4.86,18.5-6.09,13.75-16.1,23.61-27.8,32.32-16.6,12.36-35.67,20.7-52.54,32.55-17.45,12.25-29.29,28.37-31.91,50.19ZM505.65,356.09c-2.51-18.35-13.32-31.39-27.53-41.93-17.06-12.65-36.62-21.37-53.91-33.69-11.04-7.87-20.94-16.67-27.26-29.22-3.01-5.98-4.34-12.03-5.52-18.36-.27-1.47.68-4.41-1.89-4.11-2.2.25-1.13,2.97-1.17,4.56-.11,4.9.84,9.54,2.16,14.38,4.67,17.14,16.2,28.46,29.77,38.59,16.26,12.13,34.75,20.6,51.51,31.9,16.06,10.83,27.79,24.83,32.62,43.96.17,3.74.42,7.47,2.76,10.7,0-5.67,3.2-11.58-1.54-16.77ZM474.23,163.77c-18.39-.18-35.99,5.96-51.09,18.53-9.36,7.79-15.99,17.82-17.8,30.02-3.33,22.51,6.61,39.14,24.81,51.27,19.87,13.24,41.84,16.23,64.88,11.32,21.83-4.66,38.77-16.32,48.72-36.8,7.45-15.34.96-42.13-12.36-53.7-16.06-13.95-34.6-20.83-57.16-20.64ZM983.45,488.57c2.15-.23,3.28-.28,4.38-.48,23.7-4.28,35.85-20.88,41.54-42.09,4.01-14.96,5.95-30.66,5.25-46.45-.3-6.74-2.09-13.21-2.58-19.94-.9-12.34-2.38-24.61-5.14-36.84-3.71-16.47-7.84-32.79-12.02-49.14-2.49-9.74-6.03-19.11-8.9-28.7-1.66-5.54-3.89-11.02-5.65-16.6-.75-2.38-2-3.9-5.66-4.52,5.65,14.89,6.93,29.96,10.97,44.46,3.16,11.34,3.64,23.31,6.04,34.94,3.9,18.84,3.29,38.3,5.94,57.4,2,14.43-1.43,28.78-2.48,43.16-.86,11.77-4.08,22.97-8.3,33.77-2.12,5.44-5.06,10.75-8.64,15.71-4.05,5.6-9.06,10.06-14.76,15.33ZM366.66,242.53c-4.36,3.92-4.97,9.09-6.63,13.29-4.74,11.94-8.66,24.26-12.1,36.65-4.4,15.86-8.96,31.78-11.73,47.97-2.97,17.31-6.15,34.67-6.98,52.3-1.1,23.24-.03,46.11,10.08,67.74,4.57,9.77,11.49,17.31,20.68,22.39,4.83,2.67,10.24,5.51,17.25,4.32-1.85-2.13-2.93-3.82-4.41-5.01-5.72-4.6-10.14-10.48-13.25-16.8-7.33-14.89-11.82-30.8-12.88-47.43-1.73-26.97-1.91-53.87,3.21-80.63,2.44-12.76,3.11-25.77,5.85-38.6,2.88-13.47,5.59-27.02,8.41-40.53.43-2.06,0-4.3,1.53-6.21,2.13-2.66,1.64-5.7.97-9.47ZM574.75,316.62c-5.76-.16-14.01,1.78-21.85,5.32-11.18,5.06-19.65,13.18-23.34,24.88-4.47,14.14.99,26.33,11.55,35.42,24.9,21.43,68.71,15.05,81.97-10.84,5.97-11.65,5-29.02-4.39-38.25-11.42-11.23-25.15-16.5-43.95-16.52ZM784.69,316.69c-4.38-.17-9.12.31-13.76,1.5-14.1,3.62-26.48,10.54-32.06,24.34-6.75,16.69-2.3,33.1,16.74,44.81,22.01,13.54,57.71,9.17,72.69-12.66,7.91-11.53,7.8-31.9-4.33-43.23-10.84-10.11-23.93-15.03-39.27-14.76ZM682.6,216.71c2.91.09,7.01-.38,11.07-1.45,11.92-3.13,20.99-10.12,25.31-21.55,4.19-11.11-1.4-23.28-12.54-30.78-19.19-12.91-47.07-8.07-58.64,8.43-4.85,6.92-6.1,22.65-.85,29.16,8.83,10.97,20.35,16.22,35.65,16.19ZM921.79,199.66c-4.03-.45-7.97,1.21-11.6,3.17-9.18,4.97-10.09,21.03-.94,24.91,8.33,3.53,17.68,4.68,26.15-.93,5.31-3.52,8.41-12.94,5.59-17.12-4.47-6.65-10.65-10.34-19.22-10.02ZM878.62,234.45c-10.92,0-19.13,6.59-19.09,15.3.04,8.93,8.18,15.7,18.81,15.64,11.36-.06,19.22-6.48,19.2-15.67-.01-8.8-8.03-15.27-18.93-15.26ZM880.15,164.85c-9.61-.2-17.12,3.56-19.4,9.37-2.11,5.38-1.93,10.92,2.02,15.16,7.47,8.03,21.01,8.11,30.08.76,5.46-4.43,6.64-14.66,1.76-18.98-4.31-3.82-9.22-6.9-14.47-6.32ZM891.81,266.95c-2.38-.78-3.99-.04-5.68.4-5.89,1.53-11.74,1.05-17.55-.58-2.29-.64-5.04-4.55-6.49-1.79-1.22,2.31,3.56,3.19,5.58,4.52,6.55,4.32,19.48,2.8,24.15-2.54ZM865.06,197.37c9.83,7.73,24.06,6.03,30.81-3.76-9.65,6.66-20.15,5.41-30.81,3.76ZM906.2,229.86c7.89,9.26,26.63,9.75,30.7.47-10.62,4.6-20.7,4.1-30.7-.47Z"/>
      <path class="cls-19" d="M474.23,163.77c22.56-.19,41.11,6.69,57.16,20.64,13.32,11.57,19.81,38.36,12.36,53.7-9.95,20.48-26.89,32.14-48.72,36.8-23.04,4.91-45.01,1.92-64.88-11.32-18.21-12.13-28.15-28.77-24.81-51.27,1.81-12.21,8.44-22.23,17.8-30.02,15.1-12.57,32.71-18.7,51.09-18.53ZM436.62,204.66c-3.38,0-5.97-.08-8.55.02-7.48.28-10.35,2.88-10.93,10.28-.28,3.55-.02,7.15-.04,10.72-.04,6.69,4.26,10.32,10.93,10.27,6.34-.05,12.73-.8,19.02.53,6.83,1.45,9.37,4.6,9.43,11.41.03,2.98.32,6-.03,8.94-.73,6.12,2.37,8.85,7.89,9.6,7.92,1.08,15.88,1.22,23.76-.18,4.89-.87,8.34-3.35,7.96-9.12-.19-2.97-.05-5.96-.03-8.95.06-8.44,3.25-11.86,11.85-12.24,5.36-.24,10.74.01,16.11-.09,7.32-.14,9.52-2.11,10.11-9.47.32-3.95.35-7.96.02-11.91-.63-7.54-3.04-9.66-10.59-9.8-5.57-.1-11.15.14-16.7-.12-7.53-.36-10.68-3.82-10.79-11.32-.05-3.18-.24-6.38.01-9.54.43-5.45-2.72-8.06-7.31-9.06-8.44-1.84-16.98-1.56-25.47-.05-4.43.79-7.08,3.08-6.81,8.04.21,3.77,0,7.55.02,11.33.01,3.11-1.08,5.27-3.59,7.53-5.26,4.73-11.35,2.45-16.28,3.17Z"/>
      <path class="cls-22" d="M983.45,488.57c5.7-5.27,10.71-9.73,14.76-15.33,3.59-4.96,6.52-10.27,8.64-15.71,4.22-10.81,7.44-22.01,8.3-33.77,1.05-14.39,4.48-28.74,2.48-43.16-2.65-19.09-2.04-38.55-5.94-57.4-2.41-11.63-2.89-23.59-6.04-34.94-4.04-14.5-5.32-29.58-10.97-44.46,3.66.62,4.91,2.14,5.66,4.52,1.76,5.58,3.99,11.07,5.65,16.6,2.87,9.58,6.4,18.95,8.9,28.7,4.18,16.34,8.31,32.67,12.02,49.14,2.76,12.23,4.24,24.5,5.14,36.84.49,6.73,2.28,13.2,2.58,19.94.7,15.79-1.24,31.5-5.25,46.45-5.69,21.21-17.83,37.81-41.54,42.09-1.1.2-2.23.25-4.38.48Z"/>
      <path class="cls-15" d="M366.66,242.53c.67,3.77,1.16,6.81-.97,9.47-1.52,1.9-1.09,4.14-1.53,6.21-2.83,13.51-5.54,27.06-8.41,40.53-2.74,12.83-3.41,25.84-5.85,38.6-5.12,26.77-4.94,53.67-3.21,80.63,1.06,16.63,5.56,32.54,12.88,47.43,3.11,6.32,7.53,12.2,13.25,16.8,1.48,1.19,2.56,2.88,4.41,5.01-7.01,1.19-12.41-1.64-17.25-4.32-9.2-5.09-16.11-12.62-20.68-22.39-10.11-21.63-11.18-44.5-10.08-67.74.83-17.63,4.01-35,6.98-52.3,2.77-16.19,7.33-32.11,11.73-47.97,3.44-12.39,7.36-24.71,12.1-36.65,1.66-4.19,2.28-9.36,6.63-13.29Z"/>
      <path class="cls-24" d="M574.75,316.62c18.8.02,32.53,5.29,43.95,16.52,9.39,9.23,10.36,26.61,4.39,38.25-13.27,25.9-57.07,32.28-81.97,10.84-10.56-9.09-16.02-21.28-11.55-35.42,3.69-11.7,12.17-19.82,23.34-24.88,7.84-3.55,16.08-5.48,21.85-5.32ZM577.87,388.32c6.22,0,12.24-1.25,18.04-3.38,11.63-4.27,19.31-12.59,22.77-24.31,2.59-8.78-3.65-22.29-12.74-28.47-18.65-12.69-43.39-10.89-58.46,2.27-9.8,8.55-13.44,27.81-5.78,36.99,9.37,11.23,21.6,16.64,36.17,16.9Z"/>
      <path class="cls-16" d="M784.69,316.69c15.34-.28,28.44,4.64,39.27,14.76,12.14,11.32,12.24,31.7,4.33,43.23-14.98,21.84-50.68,26.21-72.69,12.66-19.03-11.71-23.49-28.12-16.74-44.81,5.59-13.8,17.96-20.72,32.06-24.34,4.64-1.19,9.38-1.67,13.76-1.5ZM787.06,323.54c-6.38.16-11.12.49-15.76,1.81-11.78,3.36-21.14,10.2-25.46,21.59-4.79,12.62.09,25.19,12.97,33.43,19.5,12.48,41.99,10.27,59.02-4.91,6.74-6.01,10.36-22.56,6.41-29.69-8.43-15.22-21.77-21.95-37.18-22.24Z"/>
      <path class="cls-14" d="M682.6,216.71c-15.3.04-26.82-5.22-35.65-16.19-5.25-6.52-4-22.24.85-29.16,11.57-16.5,39.45-21.35,58.64-8.43,11.14,7.5,16.73,19.67,12.54,30.78-4.32,11.43-13.39,18.42-25.31,21.55-4.07,1.07-8.17,1.55-11.07,1.45ZM683.52,161.16c-8.03-.44-14.74,1.26-20.82,4.74-17.05,9.73-17.26,29.97-.57,40.28,13.82,8.53,32.99,6.5,44.96-4.77,3.9-3.67,7.64-16.28,5.92-20.2-5.81-13.22-16.04-19.81-29.48-20.05Z"/>
      <path class="cls-18" d="M504.43,362.16c-4.84-19.14-16.56-33.13-32.62-43.96-16.75-11.3-35.24-19.77-51.51-31.9-13.57-10.12-25.1-21.44-29.77-38.59-1.32-4.84-2.27-9.48-2.16-14.38.04-1.59-1.03-4.31,1.17-4.56,2.56-.3,1.61,2.64,1.89,4.11,1.18,6.33,2.51,12.39,5.52,18.36,6.32,12.54,16.23,21.35,27.26,29.22,17.28,12.32,36.85,21.05,53.91,33.69,14.22,10.54,25.03,23.58,27.53,41.93-.91,1.92,1.04,4.42-1.23,6.07Z"/>
      <path class="cls-18" d="M855.78,362.13c2.62-21.83,14.46-37.94,31.91-50.19,16.87-11.85,35.95-20.19,52.54-32.55,11.7-8.71,21.71-18.57,27.8-32.32,2.48-5.6,2.7-11.54,4.86-18.5,1.56,14.35-.69,25.74-8.7,36.68-14.92,20.37-36.52,31.63-57.65,43.39-17.98,10-33.63,22.09-43.46,40.5-2.1,3.94-2.73,8.67-4.04,13.04-1.09-.01-2.17-.03-3.26-.04Z"/>
      <path class="cls-19" d="M921.79,199.66c8.57-.32,14.74,3.38,19.22,10.02,2.81,4.18-.28,13.61-5.59,17.12-8.47,5.61-17.82,4.47-26.15.93-9.16-3.88-8.24-19.94.94-24.91,3.62-1.96,7.56-3.61,11.6-3.17Z"/>
      <path class="cls-19" d="M824.54,228.33c-4.16-2.33-7.55-5.56-9.01-10.08-1.86-5.72,1.54-12.73,7.39-15.75,7.89-4.08,16.38-4.53,23.75.2,10.3,6.61,11.7,17.67-1.85,25.77-6.77,2.51-13.53,2.81-20.27-.13Z"/>
      <path class="cls-19" d="M878.62,234.45c10.89,0,18.91,6.46,18.93,15.26.01,9.19-7.85,15.61-19.2,15.67-10.63.06-18.77-6.71-18.81-15.64-.04-8.71,8.17-15.29,19.09-15.3Z"/>
      <path class="cls-19" d="M880.15,164.85c5.25-.59,10.16,2.5,14.47,6.32,4.87,4.32,3.69,14.55-1.76,18.98-9.07,7.36-22.61,7.27-30.08-.76-3.95-4.25-4.13-9.78-2.02-15.16,2.28-5.81,9.79-9.57,19.4-9.37Z"/>
      <path class="cls-14" d="M675.12,305.03c-.32-.24-.67-.43-.94-.71-6.07-6.29-6.44-8.05-2.64-12.51,4.52-5.3,12.5-6.46,18.06-2.63,4.14,2.85,4.47,8.18.9,14.3,0,0,.13-.01.13-.01-.38.07-.71.25-.97.54-4.7,2.43-9.58,2.27-14.53,1.03Z"/>
      <path class="cls-14" d="M673,266.34c-5.19-7.25-5.18-8.59.16-13.59,4.06-3.8,12.91-4.01,17.03-.1,4.71,4.48,2.93,9.24.06,13.89-5.79,2.69-11.55,3.33-17.26-.21Z"/>
      <path class="cls-20" d="M891.81,266.95c-4.67,5.34-17.61,6.87-24.15,2.54-2.01-1.33-6.8-2.2-5.58-4.52,1.46-2.76,4.2,1.14,6.49,1.79,5.81,1.63,11.66,2.12,17.55.58,1.7-.44,3.31-1.18,5.68-.4Z"/>
      <path class="cls-20" d="M865.06,197.37c10.67,1.65,21.16,2.91,30.81-3.76-6.75,9.79-20.98,11.48-30.81,3.76Z"/>
      <path class="cls-20" d="M844.83,231.6c1.46-.26,2.92-.53,4.6-.83-4.74,8.85-23.8,8.41-30.9-.59,2.36-1.38,3.77,1.99,5.85,1.11,6.76,3.38,13.59,2.91,20.44.31Z"/>
      <path class="cls-20" d="M906.2,229.86c10,4.57,20.08,5.07,30.7.47-4.07,9.29-22.81,8.79-30.7-.47Z"/>
      <path class="cls-21" d="M844.83,231.6c-6.86,2.6-13.68,3.06-20.44-.31.05-.98.11-1.97.16-2.95,6.74,2.94,13.5,2.64,20.27.13,0,1.05,0,2.09.01,3.14Z"/>
      <path class="cls-14" d="M673,266.34c5.71,3.54,11.47,2.9,17.26.21,1.32.09,2.63.19,4.13.29-1.18,2.12-2.49,3.85-4.75,4.65-1.26-2.13-2.49-2.26-3.68.06,0,0,.05-.03.05-.03-4.38-.4-8.77-.79-13.15-1.19.05-1.33.1-2.66.15-4Z"/>
      <path class="cls-25" d="M504.43,362.16c2.27-1.65.32-4.15,1.23-6.07,4.74,5.19,1.53,11.1,1.54,16.77-2.34-3.23-2.6-6.96-2.76-10.7Z"/>
      <path class="cls-14" d="M675.12,305.03c4.96,1.24,9.84,1.4,14.53-1.03.91.89.87.03.97-.54,0,0-.13.01-.13.01.88.46,2.58.24,2.14,1.88-.38,1.42-1.82,1.72-3.15,1.92-4.81.41-9.66,2.21-14.41-.33.01-.64.02-1.28.04-1.91Z"/>
      <path class="cls-14" d="M675.09,306.94c4.75,2.55,9.59.74,14.41.33-4.1,3.75-11.91,4.59-15.75,1.19-1.82-1.61.65-1.18,1.35-1.53Z"/>
      <path class="cls-14" d="M672.85,270.34c4.38.4,8.77.79,13.15,1.19-4.72,3.26-9.02,1.96-13.15-1.19Z"/>
      <path class="cls-25" d="M855.78,362.13c1.09.01,2.17.03,3.26.04.91,3.97-3.82,6.28-2.63,10.36-1.04-3.54-1.39-6.95-.63-10.39Z"/>
      <path class="cls-14" d="M685.96,271.56c1.19-2.32,2.42-2.19,3.68-.06-1.23-.1-2.43,1.24-3.68.06Z"/>
      <path class="cls-17" d="M436.62,204.66c4.93-.71,11.02,1.56,16.28-3.17,2.52-2.26,3.61-4.43,3.59-7.53-.01-3.78.19-7.57-.02-11.33-.28-4.97,2.37-7.26,6.81-8.04,8.49-1.51,17.03-1.79,25.47.05,4.58,1,7.74,3.61,7.31,9.06-.25,3.16-.06,6.36-.01,9.54.11,7.5,3.26,10.96,10.79,11.32,5.56.27,11.14.02,16.7.12,7.55.14,9.96,2.26,10.59,9.8.33,3.94.29,7.96-.02,11.91-.59,7.36-2.79,9.33-10.11,9.47-5.37.1-10.75-.15-16.11.09-8.6.38-11.8,3.8-11.85,12.24-.02,2.98-.17,5.98.03,8.95.37,5.77-3.07,8.25-7.96,9.12-7.88,1.4-15.84,1.26-23.76.18-5.52-.75-8.62-3.48-7.89-9.6.35-2.94.05-5.96.03-8.94-.06-6.81-2.6-9.97-9.43-11.41-6.29-1.33-12.69-.58-19.02-.53-6.66.06-10.97-3.58-10.93-10.27.02-3.58-.24-7.17.04-10.72.58-7.4,3.45-10.01,10.93-10.28,2.58-.09,5.17-.02,8.55-.02Z"/>
      <path class="cls-13" d="M577.87,388.32c-14.57-.26-26.8-5.67-36.17-16.9-7.67-9.19-4.03-28.44,5.78-36.99,15.08-13.15,39.82-14.95,58.46-2.27,9.09,6.19,15.33,19.7,12.74,28.47-3.46,11.72-11.14,20.03-22.77,24.31-5.8,2.13-11.82,3.38-18.04,3.38ZM610.8,363.6c3.79-2.4,2.04-5.57,1.53-9.63-2.18,2.64-2.66,4.8-2.77,7.1-5.59,14.49-18.54,18.38-31.99,21.55,15.02,2.43,29.94-6.39,33.23-19.03ZM582.45,330.04c-14.42-6.23-35.33,5.22-37.62,20.77,8.38-14.12,20.77-20.93,37.62-20.77ZM570.13,381.33c2.19.52,4.23,3.18,8.17.41-3.82-.19-6-.3-8.17-.41Z"/>
      <path class="cls-13" d="M787.06,323.54c15.41.29,28.75,7.02,37.18,22.24,3.95,7.13.33,23.68-6.41,29.69-17.02,15.17-39.52,17.39-59.02,4.91-12.87-8.24-17.76-20.81-12.97-33.43,4.33-11.4,13.69-18.24,25.46-21.59,4.64-1.32,9.38-1.66,15.76-1.81ZM785.01,383.5c2.38.24,4.75.41,7.11-2.17-1.71,0-2.67-.03-3.63,0-1.16.04-2.32.14-3.48.21-12.66-1.3-23.58-5.53-30.04-17.52-.76-1.4-.8-4.65-3.29-3.43-3.02,1.48-.4,4.01.47,5.5,7.29,12.58,18.53,17.97,32.86,17.41ZM817.48,353.72c2.98-7.71-1.53-12.13-5.02-15.9-7.95-8.59-23.19-11.82-33.53-8.03,16.89.76,31.88,4.42,38.55,23.93Z"/>
      <path class="cls-14" d="M683.52,161.16c13.45.24,23.67,6.83,29.48,20.05,1.72,3.92-2.02,16.53-5.92,20.2-11.97,11.27-31.14,13.3-44.96,4.77-16.69-10.31-16.48-30.55.57-40.28,6.08-3.47,12.79-5.18,20.82-4.74ZM677,165.85c13.2,1.24,24.35,3.63,28.78,17.09,2.19-3.32,2.28-3.87,1.03-5.73-6.87-10.2-16.4-14.11-29.81-11.37ZM680.51,207.23c-9.88-2.77-18.82-6.96-24.59-16.09,2.09,10.43,10.81,16.19,24.59,16.09Z"/>
      <path class="cls-12" d="M690.62,303.46c-.11.57-.06,1.42-.97.54.26-.29.59-.47.97-.54Z"/>
      <path class="cls-20" d="M582.45,330.04c-16.85-.16-29.24,6.65-37.62,20.77,2.29-15.55,23.2-27,37.62-20.77Z"/>
      <path class="cls-20" d="M610.8,363.6c-3.29,12.63-18.2,21.46-33.23,19.03,13.45-3.17,26.4-7.06,31.99-21.55,1.1.5.9,1.64,1.24,2.52Z"/>
      <path class="cls-25" d="M610.8,363.6c-.33-.88-.13-2.02-1.24-2.52.1-2.31.58-4.46,2.77-7.1.51,4.06,2.26,7.22-1.53,9.63Z"/>
      <path class="cls-25" d="M570.13,381.33c2.17.11,4.35.22,8.17.41-3.94,2.77-5.98.11-8.17-.41Z"/>
      <path class="cls-20" d="M817.48,353.72c-6.68-19.51-21.67-23.17-38.55-23.93,10.34-3.78,25.58-.56,33.53,8.03,3.49,3.77,8,8.19,5.02,15.9Z"/>
      <path class="cls-20" d="M785.01,383.5c-14.33.56-25.57-4.83-32.86-17.41-.87-1.5-3.49-4.02-.47-5.5,2.49-1.22,2.53,2.03,3.29,3.43,6.46,11.99,17.38,16.22,30.04,17.52,0,.65,0,1.3,0,1.96Z"/>
      <path class="cls-25" d="M785.01,383.5c0-.65,0-1.3,0-1.96,1.16-.07,2.32-.17,3.48-.21.96-.03,1.92,0,3.63,0-2.37,2.58-4.73,2.41-7.11,2.17Z"/>
      <path class="cls-14" d="M677,165.85c13.41-2.74,22.94,1.17,29.81,11.37,1.25,1.85,1.16,2.41-1.03,5.73-4.43-13.47-15.58-15.85-28.78-17.09Z"/>
      <path class="cls-14" d="M680.51,207.23c-13.78.1-22.5-5.66-24.59-16.09,5.77,9.14,14.71,13.32,24.59,16.09Z"/>
      <rect class="cls-4" x="632.57" y="247.19" width="98" height="31" rx="15.5" ry="15.5"/>
    </g>
    <ellipse class="cls-14" cx="684.83" cy="186.53" rx="75.5" ry="48.5"/>
    <ellipse class="cls-14" cx="680.83" cy="298.53" rx="29" ry="15"/>
  </g>
  <text class="cls-10" transform="translate(825.53 225.19)"><tspan x="0" y="0">A</tspan></text>
  <text class="cls-10" transform="translate(869.69 189.36)"><tspan x="0" y="0">B</tspan></text>
  <text class="cls-10" transform="translate(870.69 259.36)"><tspan x="0" y="0">X</tspan></text>
  <text class="cls-10" transform="translate(914.69 226.36)"><tspan x="0" y="0">Y</tspan></text>
  <text class="cls-6" transform="translate(642.73 271.35)"><tspan x="0" y="0">MODE</tspan></text>
  <text class="cls-9" transform="translate(578.09 198.77)"><tspan x="0" y="0">USB CONTROLLER -S/</tspan><tspan class="cls-29" x="194.24" y="0">P</tspan></text>
  <text class="cls-8" transform="translate(423.59 229.45)"><tspan x="0" y="0">L</tspan></text>
  <text class="cls-8" transform="translate(512.94 229.72)"><tspan x="0" y="0">R</tspan></text>
  <text class="cls-8" transform="translate(466.67 199.06)"><tspan x="0" y="0">U</tspan></text>
  <text class="cls-8" transform="translate(464.67 261.06)"><tspan x="0" y="0">D</tspan></text>
  <g>
    <g>
      <line class="cls-3" x1="443.61" y1="219.35" x2="503.54" y2="219.35"/>
      <path class="cls-7" d="M437.57,219.35c2.84,1.05,6.36,2.85,8.55,4.76l-1.72-4.76,1.72-4.75c-2.18,1.9-5.71,3.7-8.55,4.75Z"/>
      <path class="cls-7" d="M509.57,219.35c-2.84,1.05-6.36,2.85-8.55,4.76l1.72-4.76-1.72-4.75c2.18,1.9,5.71,3.7,8.55,4.75Z"/>
    </g>
    <g>
      <line class="cls-3" x1="473.57" y1="210.73" x2="473.57" y2="228.66"/>
      <path class="cls-7" d="M473.57,204.69c-1.05,2.84-2.85,6.36-4.76,8.55l4.76-1.72,4.75,1.72c-1.9-2.18-3.7-5.71-4.75-8.55Z"/>
      <path class="cls-7" d="M473.57,234.69c-1.05-2.84-2.85-6.36-4.76-8.55l4.76,1.72,4.75-1.72c-1.9,2.18-3.7,5.71-4.75,8.55Z"/>
    </g>
  </g>
  <g>
    <rect class="cls-11" x="985.57" y="36.14" width="98" height="39.73" rx="19.87" ry="19.87"/>
    <text class="cls-26" transform="translate(1009.57 63.75)"><tspan x="0" y="0">1001</tspan></text>
  </g>
  <g>
    <rect class="cls-11" x="1040.57" y="99.37" width="98" height="39.73" rx="19.87" ry="19.87"/>
    <text class="cls-26" transform="translate(1064.57 126.97)"><tspan x="0" y="0">10</tspan><tspan class="cls-29" x="23" y="0">1</tspan><tspan x="33.65" y="0">1</tspan></text>
  </g>
  <g>
    <rect class="cls-11" x="1067.57" y="245.37" width="98" height="39.73" rx="19.87" ry="19.87"/>
    <text class="cls-26" transform="translate(1091.57 272.97)"><tspan class="cls-29" x="0" y="0">1</tspan><tspan x="10.65" y="0">101</tspan></text>
  </g>
  <g>
    <rect class="cls-11" x="1084.57" y="348.37" width="98" height="39.73" rx="19.87" ry="19.87"/>
    <text class="cls-26" transform="translate(1108.57 375.97)"><tspan class="cls-29" x="0" y="0">111</tspan><tspan x="31.94" y="0">1</tspan></text>
  </g>
  <g>
    <polyline class="cls-1" points="834.85 193.87 834.55 56.01 979.54 56.01"/>
    <g>
      <path class="cls-7" d="M838.61,193.65c0,2.08-1.68,3.76-3.75,3.77s-3.76-1.68-3.77-3.75c0-2.08,1.68-3.76,3.75-3.77s3.76,1.68,3.77,3.75Z"/>
      <path class="cls-23" d="M839.11,193.65c0-2.35-1.92-4.26-4.27-4.25s-4.26,1.92-4.25,4.27c0,2.35,1.92,4.26,4.27,4.25s4.26-1.92,4.25-4.27c0-2.35,0,2.35,0,0ZM831.59,193.67c0-1.8,1.45-3.26,3.25-3.27,1.8,0,3.26,1.45,3.27,3.25,0,1.8-1.46,3.26-3.25,3.27-1.8,0-3.26-1.45-3.27-3.25,0-1.8,0,1.8,0,0Z"/>
    </g>
    <path class="cls-23" d="M985.57,56.01c-2.84,1.05-6.36,2.85-8.55,4.76l1.72-4.76-1.72-4.75c2.18,1.9,5.71,3.7,8.55,4.75Z"/>
  </g>
  <g>
    <polyline class="cls-1" points="896.59 167.64 923.72 119.23 1034.54 119.23"/>
    <g>
      <path class="cls-7" d="M899.98,169.29c-1.01,1.81-3.31,2.46-5.12,1.44-1.81-1.01-2.46-3.31-1.44-5.12,1.01-1.81,3.31-2.46,5.12-1.44s2.46,3.31,1.44,5.12Z"/>
      <path class="cls-23" d="M900.42,169.53c1.15-2.05.41-4.65-1.63-5.8s-4.65-.41-5.8,1.63c-1.15,2.05-.41,4.65,1.63,5.8,2.05,1.15,4.65.41,5.8-1.63,1.15-2.05-1.15,2.05,0,0ZM893.86,165.86c.88-1.57,2.87-2.13,4.44-1.25,1.57.88,2.13,2.87,1.25,4.44-.88,1.57-2.87,2.13-4.44,1.25s-2.13-2.87-1.25-4.44c.88-1.57-.88,1.57,0,0Z"/>
    </g>
    <path class="cls-23" d="M1040.57,119.23c-2.84,1.05-6.36,2.85-8.55,4.76l1.72-4.76-1.72-4.75c2.18,1.9,5.71,3.7,8.55,4.75Z"/>
  </g>
  <g>
    <polyline class="cls-1" points="944.78 221.24 985.57 266.34 1061.54 265.31"/>
    <g>
      <path class="cls-7" d="M942.14,223.92c-1.39-1.54-1.27-3.92.27-5.31s3.92-1.27,5.31.27c1.39,1.54,1.27,3.92-.27,5.31s-3.92,1.27-5.31-.27Z"/>
      <path class="cls-23" d="M941.77,224.25c1.58,1.74,4.27,1.88,6.02.3,1.74-1.58,1.88-4.27.3-6.02-1.58-1.74-4.27-1.88-6.02-.3s-1.88,4.27-.3,6.02c1.58,1.74-1.58-1.74,0,0ZM947.34,219.21c1.21,1.33,1.1,3.4-.23,4.6s-3.4,1.1-4.6-.23c-1.21-1.33-1.1-3.4.23-4.6,1.33-1.21,3.4-1.1,4.6.23,1.21,1.33-1.21-1.33,0,0Z"/>
    </g>
    <path class="cls-23" d="M1067.57,265.23c-2.83,1.09-6.32,2.94-8.48,4.87l1.66-4.78-1.78-4.73c2.21,1.87,5.76,3.62,8.61,4.64Z"/>
  </g>
  <g>
    <polyline class="cls-1" points="898.6 263.85 994.23 368.5 1078.54 368.25"/>
    <g>
      <path class="cls-7" d="M895.97,266.54c-1.4-1.53-1.29-3.91.24-5.31,1.53-1.4,3.91-1.29,5.31.24,1.4,1.53,1.29,3.91-.24,5.31-1.53,1.4-3.91,1.29-5.31-.24Z"/>
      <path class="cls-23" d="M895.6,266.88c1.58,1.73,4.28,1.86,6.02.27s1.86-4.28.27-6.02c-1.58-1.73-4.28-1.86-6.02-.27s-1.86,4.28-.27,6.02c1.58,1.73-1.58-1.73,0,0ZM901.15,261.81c1.21,1.33,1.12,3.39-.21,4.61-1.33,1.21-3.39,1.12-4.61-.21-1.21-1.33-1.12-3.39.21-4.61,1.33-1.21,3.39-1.12,4.61.21,1.21,1.33-1.21-1.33,0,0Z"/>
    </g>
    <path class="cls-23" d="M1084.57,368.23c-2.84,1.06-6.35,2.87-8.53,4.78l1.71-4.76-1.73-4.75c2.19,1.9,5.72,3.68,8.56,4.73Z"/>
  </g>
  <g>
    <rect class="cls-11" x="633.57" y="455.37" width="98" height="39.73" rx="19.87" ry="19.87"/>
    <text class="cls-26" transform="translate(642.57 482.97)"><tspan x="0" y="0">S/</tspan><tspan class="cls-29" x="19.18" y="0">P</tspan><tspan x="31.12" y="0" xml:space="preserve"> - 1/0</tspan></text>
  </g>
  <g>
    <line class="cls-1" x1="680.51" y1="282.24" x2="680.51" y2="449.33"/>
    <g>
      <path class="cls-7" d="M676.75,282.45c0-2.08,1.68-3.76,3.76-3.76s3.76,1.68,3.76,3.76-1.68,3.76-3.76,3.76-3.76-1.68-3.76-3.76Z"/>
      <path class="cls-23" d="M676.25,282.45c0,2.35,1.91,4.26,4.26,4.26s4.26-1.91,4.26-4.26-1.91-4.26-4.26-4.26-4.26,1.91-4.26,4.26,0-2.35,0,0ZM683.77,282.45c0,1.8-1.46,3.26-3.26,3.26s-3.26-1.46-3.26-3.26,1.46-3.26,3.26-3.26,3.26,1.46,3.26,3.26,0-1.8,0,0Z"/>
    </g>
    <path class="cls-23" d="M680.51,455.37c-1.05-2.84-2.85-6.36-4.76-8.55l4.76,1.72,4.75-1.72c-1.9,2.18-3.7,5.71-4.75,8.55Z"/>
  </g>
  <g>
    <rect class="cls-11" x="826.32" y="514.19" width="105" height="97" rx="12.41" ry="12.41"/>
    <g>
      <g>
        <line class="cls-2" x1="848.86" y1="561.94" x2="908.79" y2="561.94"/>
        <path class="cls-14" d="M842.82,561.94c2.84,1.05,6.36,2.85,8.55,4.76l-1.72-4.76,1.72-4.75c-2.18,1.9-5.71,3.7-8.55,4.75Z"/>
        <path class="cls-14" d="M914.82,561.94c-2.84,1.05-6.36,2.85-8.55,4.76l1.72-4.76-1.72-4.75c2.18,1.9,5.71,3.7,8.55,4.75Z"/>
      </g>
      <g>
        <line class="cls-2" x1="878.82" y1="535.23" x2="878.82" y2="590.16"/>
        <path class="cls-14" d="M878.82,529.19c-1.05,2.84-2.85,6.36-4.76,8.55l4.76-1.72,4.75,1.72c-1.9-2.18-3.7-5.71-4.75-8.55Z"/>
        <path class="cls-14" d="M878.82,596.19c-1.05-2.84-2.85-6.36-4.76-8.55l4.76,1.72,4.75-1.72c-1.9,2.18-3.7,5.71-4.75,8.55Z"/>
      </g>
    </g>
    <text class="cls-27" transform="translate(874.53 525.53)"><tspan x="0" y="0">B</tspan></text>
    <text class="cls-27" transform="translate(874.32 608)"><tspan x="0" y="0">X</tspan></text>
    <text class="cls-27" transform="translate(832.32 566)"><tspan x="0" y="0">A</tspan></text>
    <text class="cls-27" transform="translate(918.32 566)"><tspan x="0" y="0">Y</tspan></text>
  </g>
  <g>
    <rect class="cls-11" x="434.76" y="513.6" width="105" height="97" rx="12.41" ry="12.41"/>
    <g>
      <g>
        <line class="cls-2" x1="457.3" y1="561.34" x2="517.23" y2="561.34"/>
        <path class="cls-14" d="M451.26,561.34c2.84,1.05,6.36,2.85,8.55,4.76l-1.72-4.76,1.72-4.75c-2.18,1.9-5.71,3.7-8.55,4.75Z"/>
        <path class="cls-14" d="M523.26,561.34c-2.84,1.05-6.36,2.85-8.55,4.76l1.72-4.76-1.72-4.75c2.18,1.9,5.71,3.7,8.55,4.75Z"/>
      </g>
      <g>
        <line class="cls-2" x1="487.26" y1="534.64" x2="487.26" y2="589.56"/>
        <path class="cls-14" d="M487.26,528.6c-1.05,2.84-2.85,6.36-4.76,8.55l4.76-1.72,4.75,1.72c-1.9-2.18-3.7-5.71-4.75-8.55Z"/>
        <path class="cls-14" d="M487.26,595.6c-1.05-2.84-2.85-6.36-4.76-8.55l4.76,1.72,4.75-1.72c-1.9,2.18-3.7,5.71-4.75,8.55Z"/>
      </g>
    </g>
    <text class="cls-27" transform="translate(482.97 524.94)"><tspan x="0" y="0">U</tspan></text>
    <text class="cls-27" transform="translate(482.76 607.41)"><tspan x="0" y="0">D</tspan></text>
    <text class="cls-27" transform="translate(440.76 565.41)"><tspan x="0" y="0">L</tspan></text>
    <text class="cls-27" transform="translate(526.76 565.41)"><tspan x="0" y="0">R</tspan></text>
  </g>
  <g>
    <polyline class="cls-1" points="811.22 393.17 874.32 450.91 874.51 510.98"/>
    <g>
      <path class="cls-7" d="M808.84,396.09c-1.53-1.4-1.64-3.78-.24-5.31,1.4-1.53,3.78-1.64,5.31-.24s1.64,3.78.24,5.31c-1.4,1.53-3.78,1.64-5.31.24Z"/>
      <path class="cls-23" d="M808.5,396.46c1.73,1.59,4.43,1.47,6.02-.27s1.47-4.43-.27-6.02c-1.73-1.59-4.43-1.47-6.02.27s-1.47,4.43.27,6.02c1.73,1.59-1.73-1.59,0,0ZM813.58,390.91c1.33,1.21,1.42,3.28.2,4.61-1.21,1.33-3.28,1.42-4.61.2-1.33-1.21-1.42-3.28-.2-4.61,1.21-1.33,3.28-1.42,4.61-.2,1.33,1.21-1.33-1.21,0,0Z"/>
    </g>
    <path class="cls-23" d="M874.53,517.01c-1.06-2.84-2.87-6.35-4.78-8.53l4.76,1.7,4.75-1.74c-1.9,2.19-3.68,5.72-4.73,8.56Z"/>
  </g>
  <g>
    <polyline class="cls-1" points="571.01 397.51 487.49 461.89 487.29 507.56"/>
    <g>
      <path class="cls-7" d="M568.55,394.66c1.64-1.27,4.01-.96,5.27.68s.96,4.01-.68,5.27c-1.64,1.27-4.01.96-5.27-.68s-.96-4.01.68-5.27Z"/>
      <path class="cls-23" d="M568.24,394.26c-1.86,1.43-2.21,4.11-.77,5.97,1.43,1.86,4.11,2.21,5.97.77,1.86-1.43,2.21-4.11.77-5.97-1.43-1.86-4.11-2.21-5.97-.77-1.86,1.43,1.86-1.43,0,0ZM572.83,400.22c-1.42,1.1-3.47.83-4.57-.59-1.1-1.42-.83-3.47.59-4.57,1.42-1.1,3.47-.83,4.57.59,1.1,1.42.83,3.47-.59,4.57-1.42,1.1,1.42-1.1,0,0Z"/>
    </g>
    <path class="cls-23" d="M487.26,513.6c-1.04-2.84-2.82-6.38-4.72-8.57l4.75,1.74,4.76-1.7c-1.91,2.18-3.73,5.69-4.79,8.53Z"/>
  </g>
  <g>
    <rect class="cls-11" x="62.85" y="0" width="227.15" height="47.91" rx="19.87" ry="19.87"/>
    <text class="cls-26" transform="translate(86.7 29.41) scale(1.29 1)"><tspan x="0" y="0">REF_</tspan><tspan class="cls-28" x="53.68" y="0">Y</tspan><tspan x="69.44" y="0" xml:space="preserve"> + 1’b1</tspan></text>
  </g>
  <g>
    <rect class="cls-11" x="6" y="86.74" width="227.15" height="47.91" rx="19.87" ry="19.87"/>
    <text class="cls-26" transform="translate(29.85 116.15) scale(1.29 1)"><tspan x="0" y="0">REF_X - 1’b1</tspan></text>
  </g>
  <g>
    <rect class="cls-11" x="0" y="359.74" width="227.15" height="47.91" rx="19.87" ry="19.87"/>
    <text class="cls-26" transform="translate(23.85 389.15) scale(1.29 1)"><tspan x="0" y="0">REF_X + 1’b1</tspan></text>
  </g>
  <g>
    <rect class="cls-11" x="30" y="207.74" width="227.15" height="47.91" rx="19.87" ry="19.87"/>
    <text class="cls-26" transform="translate(53.85 237.15) scale(1.29 1)"><tspan x="0" y="0">REF_</tspan><tspan class="cls-28" x="53.68" y="0">Y</tspan><tspan x="69.44" y="0" xml:space="preserve"> - 1’b1</tspan></text>
  </g>
  <g>
    <polyline class="cls-1" points="475.63 165.31 473.57 23.95 296.03 25.89"/>
    <g>
      <path class="cls-7" d="M479.38,165.04c.03,2.08-1.63,3.78-3.7,3.81-2.08.03-3.78-1.63-3.81-3.7-.03-2.08,1.63-3.78,3.7-3.81,2.08-.03,3.78,1.63,3.81,3.7Z"/>
      <path class="cls-23" d="M479.88,165.03c-.03-2.35-1.97-4.23-4.32-4.2s-4.23,1.97-4.2,4.32c.03,2.35,1.97,4.23,4.32,4.2,2.35-.03,4.23-1.97,4.2-4.32-.03-2.35.03,2.35,0,0ZM472.37,165.14c-.03-1.8,1.41-3.28,3.21-3.31,1.8-.03,3.28,1.41,3.31,3.21.03,1.8-1.41,3.28-3.21,3.31s-3.28-1.41-3.31-3.21c-.03-1.8.03,1.8,0,0Z"/>
    </g>
    <path class="cls-23" d="M290,25.95c2.83-1.08,6.33-2.92,8.5-4.85l-1.67,4.77,1.77,4.74c-2.2-1.88-5.75-3.64-8.6-4.66Z"/>
  </g>
  <g>
    <polyline class="cls-1" points="409.86 216.33 339.34 110.69 239.18 110.69"/>
    <g>
      <path class="cls-7" d="M412.87,214.06c1.15,1.73.69,4.06-1.04,5.21-1.73,1.15-4.06.69-5.21-1.04-1.15-1.73-.69-4.06,1.04-5.21s4.06-.69,5.21,1.04Z"/>
      <path class="cls-23" d="M413.28,213.79c-1.3-1.95-3.95-2.48-5.91-1.18-1.95,1.3-2.48,3.95-1.18,5.91,1.3,1.95,3.95,2.48,5.91,1.18s2.48-3.95,1.18-5.91c-1.3-1.95,1.3,1.95,0,0ZM407.03,217.96c-1-1.5-.59-3.52.9-4.52,1.5-1,3.52-.59,4.52.9,1,1.5.59,3.52-.9,4.52-1.5,1-3.52.59-4.52-.9-1-1.5,1,1.5,0,0Z"/>
    </g>
    <path class="cls-23" d="M233.15,110.69c2.84-1.05,6.36-2.85,8.55-4.76l-1.72,4.76,1.72,4.75c-2.18-1.9-5.71-3.7-8.55-4.75Z"/>
  </g>
  <g>
    <polyline class="cls-1" points="523.26 246.57 523.26 305.87 417.01 381.32 233.18 382.93"/>
    <g>
      <path class="cls-7" d="M519.51,246.79c0-2.08,1.68-3.76,3.76-3.76s3.76,1.68,3.76,3.76-1.68,3.76-3.76,3.76-3.76-1.68-3.76-3.76Z"/>
      <path class="cls-23" d="M519.01,246.79c0,2.35,1.91,4.26,4.26,4.26s4.26-1.91,4.26-4.26-1.91-4.26-4.26-4.26-4.26,1.91-4.26,4.26,0-2.35,0,0ZM526.52,246.79c0,1.8-1.46,3.26-3.26,3.26s-3.26-1.46-3.26-3.26,1.46-3.26,3.26-3.26,3.26,1.46,3.26,3.26,0-1.8,0,0Z"/>
    </g>
    <path class="cls-23" d="M227.15,382.98c2.83-1.08,6.34-2.91,8.51-4.83l-1.68,4.77,1.76,4.74c-2.2-1.89-5.74-3.65-8.59-4.68Z"/>
  </g>
  <g>
    <polyline class="cls-1" points="476.06 275.74 475.69 298.53 375.21 300.54 262.44 238.68"/>
    <g>
      <path class="cls-7" d="M472.29,275.89c.03-2.08,1.74-3.73,3.82-3.7,2.08.03,3.73,1.74,3.7,3.82-.03,2.08-1.74,3.73-3.82,3.7-2.08-.03-3.73-1.74-3.7-3.82Z"/>
      <path class="cls-23" d="M471.79,275.89c-.04,2.35,1.84,4.29,4.19,4.33s4.29-1.84,4.33-4.19c.04-2.35-1.84-4.29-4.19-4.33-2.35-.04-4.29,1.84-4.33,4.19-.04,2.35.04-2.35,0,0ZM479.31,276.01c-.03,1.8-1.51,3.24-3.31,3.21-1.8-.03-3.24-1.51-3.21-3.31.03-1.8,1.51-3.24,3.31-3.21s3.24,1.51,3.21,3.31c-.03,1.8.03-1.8,0,0Z"/>
    </g>
    <path class="cls-23" d="M257.15,235.78c3,.44,6.95.56,9.78-.06l-3.8,3.34-.78,5c-1-2.72-3.22-5.99-5.21-8.28Z"/>
  </g>
</svg>