<?xml version="1.0" encoding="UTF-8"?>
<svg id="Layer_1" data-name="Layer 1" xmlns="http://www.w3.org/2000/svg" viewBox="0 0 118.23 108.32">
  <defs>
    <style>
      .cls-1, .cls-2 {
        fill: #663a44;
      }

      .cls-1, .cls-3, .cls-4 {
        stroke-width: 0px;
      }

      .cls-2, .cls-5, .cls-6 {
        stroke-miterlimit: 10;
      }

      .cls-2, .cls-6 {
        stroke: #000;
      }

      .cls-5 {
        fill: #633844;
        opacity: .28;
        stroke: red;
      }

      .cls-3 {
        opacity: .6;
      }

      .cls-3, .cls-6, .cls-7 {
        fill: #fff;
      }

      .cls-4 {
        fill: #231f20;
      }

      .cls-7 {
        font-family: TimesNewRomanPSMT, 'Times New Roman';
        font-size: 6px;
      }

      .cls-8 {
        letter-spacing: -.04em;
      }
    </style>
  </defs>
  <g>
    <rect class="cls-3" x="117.3" width=".93" height="108.32"/>
    <rect class="cls-4" x="12.62" y="17.48" width="80.37" height="73.39" rx="7.36" ry="7.36"/>
    <g>
      <rect class="cls-1" x="28.66" y="5.89" width="8.06" height="8.04" rx="3.95" ry="3.95"/>
      <rect class="cls-1" x="55.89" y="5.89" width="8.06" height="8.04" rx="3.95" ry="3.95"/>
      <rect class="cls-1" x="68.51" y="5.89" width="8.06" height="8.04" rx="3.95" ry="3.95"/>
      <rect class="cls-1" x="43.14" y="5.89" width="8.06" height="8.04" rx="3.95" ry="3.95"/>
    </g>
    <line class="cls-2" x1="32.69" y1="13.92" x2="32.69" y2="17.55"/>
    <line class="cls-2" x1="47.17" y1="13.92" x2="47.17" y2="17.55"/>
    <line class="cls-2" x1="59.92" y1="13.92" x2="59.92" y2="17.55"/>
    <line class="cls-2" x1="72.54" y1="13.92" x2="72.54" y2="17.55"/>
    <g>
      <line class="cls-2" x1="32.69" y1="94.51" x2="32.69" y2="89.94"/>
      <line class="cls-2" x1="47.17" y1="94.51" x2="47.17" y2="89.94"/>
      <line class="cls-2" x1="59.92" y1="94.51" x2="59.92" y2="89.94"/>
      <line class="cls-2" x1="72.54" y1="94.51" x2="72.54" y2="89.94"/>
    </g>
    <line class="cls-2" x1="97.56" y1="34.29" x2="92.8" y2="34.29"/>
    <line class="cls-2" x1="97.56" y1="46.87" x2="92.8" y2="46.87"/>
    <line class="cls-2" x1="97.56" y1="59.59" x2="92.8" y2="59.59"/>
    <line class="cls-2" x1="97.56" y1="74.03" x2="92.8" y2="74.03"/>
    <g>
      <line class="cls-2" x1="7.53" y1="34.29" x2="13.43" y2="34.29"/>
      <line class="cls-2" x1="7.53" y1="46.87" x2="13.43" y2="46.86"/>
      <line class="cls-6" x1="7.53" y1="59.59" x2="13.43" y2="59.59"/>
      <line class="cls-2" x1="7.53" y1="74.03" x2="13.43" y2="74.03"/>
    </g>
    <g>
      <rect class="cls-1" x="96.57" y="70" width="8.04" height="8.06" rx="3.95" ry="3.95" transform="translate(26.56 174.62) rotate(-90)"/>
      <rect class="cls-1" x="96.57" y="42.84" width="8.04" height="8.06" rx="3.95" ry="3.95" transform="translate(53.71 147.46) rotate(-90)"/>
      <rect class="cls-1" x="96.57" y="30.26" width="8.04" height="8.06" rx="3.95" ry="3.95" transform="translate(66.3 134.88) rotate(-90)"/>
      <rect class="cls-1" x="96.57" y="55.56" width="8.04" height="8.06" rx="3.95" ry="3.95" transform="translate(41 160.18) rotate(-90)"/>
    </g>
    <g>
      <rect class="cls-1" x="28.66" y="93.4" width="8.06" height="8.04" rx="3.95" ry="3.95"/>
      <rect class="cls-1" x="55.89" y="93.4" width="8.06" height="8.04" rx="3.95" ry="3.95"/>
      <rect class="cls-1" x="68.51" y="93.4" width="8.06" height="8.04" rx="3.95" ry="3.95"/>
      <rect class="cls-1" x="43.14" y="93.4" width="8.06" height="8.04" rx="3.95" ry="3.95"/>
    </g>
    <g>
      <rect class="cls-1" x=".01" y="70" width="8.04" height="8.06" rx="3.95" ry="3.95" transform="translate(-70 78.06) rotate(-90)"/>
      <rect class="cls-1" x=".01" y="42.84" width="8.04" height="8.06" rx="3.95" ry="3.95" transform="translate(-42.84 50.9) rotate(-90)"/>
      <rect class="cls-1" x=".01" y="30.26" width="8.04" height="8.06" rx="3.95" ry="3.95" transform="translate(-30.26 38.32) rotate(-90)"/>
      <rect class="cls-1" x=".01" y="55.56" width="8.04" height="8.06" rx="3.95" ry="3.95" transform="translate(-55.56 63.62) rotate(-90)"/>
    </g>
    <rect class="cls-5" x="20.22" y="24.51" width="65.51" height="59.39" rx="6.51" ry="6.51"/>
  </g>
  <text class="cls-7" transform="translate(47.28 48.81)"><tspan x="0" y="0">USB</tspan><tspan x="-14" y="7.2">CONTROLLER</tspan><tspan x="1.78" y="14.4">S/</tspan><tspan class="cls-8" x="6.78" y="14.4">P</tspan></text>
</svg>